<?xml version="1.0" encoding="UTF-8"?><svg xmlns="http://www.w3.org/2000/svg" viewBox="0 0 40 40"><g id="a"/><g id="b"><g id="c"><rect width="40" height="40" fill="#f2d4cc"/><g><path d="M35.49,18.17c0,4.17-6.94,7.54-15.5,7.54s-15.5-3.38-15.5-7.54c0-1.14,.31-2.5,1.46-3.2,2.71-1.65,7.83,.24,14.04,.24,6.55,0,11.78-1.94,14.42,.19,.86,.69,1.08,1.79,1.08,2.77Z" fill="#fff"/><path d="M35.51,18.16c0,1.09-1.17,3.18-1.32,3.05-3.21-2.74-7.74-.43-14.07-.43-6.44,0-12.28-2.04-14.42,.28-.25,.27-1.19-1.88-1.19-2.91,0-.62,.36-1.91,.36-1.91,3.68,2.88,9.04,3.56,15.26,3.56,6.55,0,12.69-1.46,14.95-3.62,0,0,.44,1.29,.44,1.97Z" fill="#9e2821"/></g></g></g></svg>