<?xml version="1.0" encoding="UTF-8"?><svg xmlns="http://www.w3.org/2000/svg" viewBox="0 0 40 40"><g id="a"/><g id="b"><g id="c"><rect width="40" height="40" fill="#f2d4cc"/><g><path d="M34.03,20.47c0,1.16-1.14,2.22-3.06,3.06-2.57,1.13-18.8,1.23-21.37,.25-2.27-.87-3.66-2.03-3.66-3.31,0-2.71,6.29-4.91,14.04-4.91s14.04,2.2,14.04,4.91Z" fill="#fff"/><path d="M34.03,20.59c-.47,2.35-3.36,3.09-3.47,2.96-2.03-2.42-6.04-2.63-10.57-2.58-5.3,.06-8.61,.3-10.68,2.58,0,0-3.06-.98-3.36-2.98-.08-.56,.58-1.7,.8-1.56,2.4,1.54,7.84,1.21,13.25,1.21s10,.27,13.11-1.51c.12-.07,1.12,.93,.93,1.89Z" fill="#9e2821"/></g></g></g></svg>