<?xml version="1.0" encoding="UTF-8"?><svg xmlns="http://www.w3.org/2000/svg" viewBox="0 0 40 40"><g id="a"/><g id="b"><g id="c"><rect width="40" height="40" fill="#f2d4cc"/><g><path d="M35.5,16.5c0,5.34-6.96,9.67-15.54,9.67s-15.54-4.33-15.54-9.67c0-.57,.28-1.48,.84-1.46,6.85,.21,7.04-1.21,14.72-1.21s7.47,1.71,14.99,1.21c.66-.04,.54,.8,.54,1.46Z" fill="#fff"/><path d="M35.58,16.55c-.26,3.08-3.17,6.7-6.92,7.66,0,0-5.23-.21-8.67-.21s-9.04,.21-9.04,.21c-3.21-.88-6.73-4.52-6.46-7.66,.04-.47,.47-1.71,.79-1.25,3.48,4.95,4.25,3.48,14.74,3.38s11.63,1.12,14.64-3.5c.36-.56,.97,.71,.91,1.37Z" fill="#9e2821"/></g></g></g></svg>