<?xml version="1.0" encoding="UTF-8"?><svg xmlns="http://www.w3.org/2000/svg" viewBox="0 0 40 40"><g id="a"/><g id="b"><g id="c"><rect width="40" height="40" fill="#f2d4cc"/><g><path d="M33.65,21.42c0,.53-.75,1.52-1.47,1.47-3.79-.3-6.31-.69-12.18-.69s-10.29,1.2-12.6,.56c-.59-.17-1.04-.85-1.04-1.33,0-2.41,6.11-4.36,13.65-4.36s13.65,1.95,13.65,4.36Z" fill="#fff"/><path d="M33.65,21.42c0,.53-.75,1.52-1.47,1.47-3.79-.3-6.31-.69-12.18-.69s-10.29,1.2-12.6,.56c-.59-.17-1.04-.85-1.04-1.33,0-.87,2.03-2.62,2.18-2.36,1.61,2.72,6.66,2.43,11.46,2.43s10.31-.04,11.61-2.35c.22-.39,2.03,1.45,2.03,2.29Z" fill="#9e2720"/></g></g></g></svg>