<?xml version="1.0" encoding="UTF-8"?><svg xmlns="http://www.w3.org/2000/svg" viewBox="0 0 40 40"><g id="a"/><g id="b"><g id="c"><rect width="40" height="40" fill="#f2d4cc"/><g><path d="M30,13.64c-2.17-1.26-10-.89-10-.89,0,0-7.83-.37-10,.89-1.55,.9-4.39,4.11-4.11,5.89,.43,2.78,3.26,5.74,6.44,6.89,1.81,.66,7.67,.89,7.67,.89,0,0,5.87-.18,7.67-.89,2.19-.87,5.74-3.53,6.44-6.89,.37-1.76-2.56-4.99-4.11-5.89Z" fill="#fff"/><path d="M30.82,24.4l-1.49-1.21H10.83l-1.49,1.21s-3.85-2.44-3.47-5.22c.23-1.71,1.26-2.55,1.26-2.55l2.61,1.11,10.54,.08,9.5-.16,3.03-1.34s1.59,1.18,1.29,3.21c-.42,2.9-3.29,4.88-3.29,4.88Z" fill="#9e2821"/><path d="M13.3,23.19c.44-2.41,1.91-4.2,3.24-5.41l6.88-.03c1.35,1.2,2.48,3.1,3.27,5.43,0,0-13.42,.17-13.39,0Z" fill="#f05680"/></g></g></g></svg>