<?xml version="1.0" encoding="UTF-8"?><svg xmlns="http://www.w3.org/2000/svg" viewBox="0 0 40 40"><g id="a"/><g id="b"><g id="c"><rect width="40" height="40" fill="#f2d4cc"/><g><path d="M35.44,17.85c0,5.2-6.86,9.42-15.33,9.42s-15.33-4.22-15.33-9.42c0-1.12,.32-2.19,.9-3.19,2.13-3.63,8.62-1.03,15.26-1.03s11.65-2.52,13.7,1.21c.52,.95,.8,1.96,.8,3.02Z" fill="#fff"/><path d="M35.23,17.85c0,5.2-6.86,9.42-15.33,9.42s-15.33-4.22-15.33-9.42c0-1.12,.37-1.88,.96-2.88,0,0,3.25,3.8,14.92,3.75,10.08-.04,14.5-3.5,14.5-3.5,.52,.95,.29,1.57,.29,2.63Z" fill="#9e2821"/><path d="M32.22,23.62c-2.81,2-6.13,3.64-12.37,3.65-5.59,.01-9.01-1.72-11.79-3.43,0,0,.55-1.38,12.22-1.43,10.08-.04,11.94,1.21,11.94,1.21Z" fill="#f05680"/></g></g></g></svg>