<?xml version="1.0" encoding="UTF-8"?><svg xmlns="http://www.w3.org/2000/svg" viewBox="0 0 40 40"><g id="a"/><g id="b"><g id="c"><rect width="40" height="40" fill="#f2d4cc"/><g><path d="M33.99,20.47c0,1.16-1.14,2.23-3.06,3.07-2.57,1.13-18.8,1.24-21.37,.25-2.27-.87-3.66-2.04-3.66-3.31,0-2.72,6.29-4.92,14.04-4.92s14.04,2.2,14.04,4.92Z" fill="#fff"/><path d="M34.09,20.62c0,1.16-3.36,3.45-4.38,2.87-3.9-2.23-15.77-2.35-19.07,.11-1.55,1.16-4.64-1.7-4.64-2.98,0-.88,1.36-2.8,1.8-2.42,1.83,1.58,7.21,.95,12.47,.95s9.88,.3,11.67-1.15c.12-.1,2.15,1.66,2.15,2.62Z" fill="#9e2821"/><path d="M27.69,20.59c0,.65-.78,1.8-1.85,1.62-1.58-.25-3.56-.43-6.13-.43s-3.97,.15-5.65,.45c-1.14,.21-2.04-.97-2.04-1.64,0-.48,.18-1.33,.86-1.32,.33,0,3.87-.12,6.91-.12s6.44-.21,6.86,0c.71,.34,1.04,.92,1.04,1.44Z" fill="#f05680"/></g></g></g></svg>