<?xml version="1.0" encoding="UTF-8"?><svg xmlns="http://www.w3.org/2000/svg" viewBox="0 0 40 40"><g id="a"/><g id="b"><g id="c"><rect width="40" height="40" fill="#f2d4cc"/><g><path d="M33.78,22.89c-1.87,3.1-6.41,3.39-14.03,3.39s-10.33,0-13.56-3.39c-.1-.11,0-.3,.02-.44,.35-4.86,6.38-8.72,13.78-8.72s13.01,3.61,13.72,8.23c.05,.31,.23,.67,.07,.94Z" fill="#fff"/><path d="M33.78,22.89c-1.19,2.21-5.45,3-5.45,3-2.13-1.66-5.03-1.74-8.5-1.74-4.16,0-6.98-.17-9.01,1.61,0,0-2.97-.77-4.57-2.83-.09-.12,.02-.3,.02-.44-.06-1.72,1.11-3.35,1.23-3.29,3.38,1.69,7.34-.81,12.92-.81s8.47,2.6,12.12,.7c.15-.08,1.07,1.89,1.22,2.9,.05,.31,.17,.63,.02,.9Z" fill="#9e2821"/></g></g></g></svg>